<svg width="512" height="512" version="1.1" xmlns="http://www.w3.org/2000/svg" desc="Created with imagetracer.js version 0.2.1" ><path fill="rgb(37,36,70)" stroke="rgb(37,36,70)" stroke-width="1" opacity="1" d="M 155 93 L 223.5 93 L 224 96 L 211 96 L 211 101 L 205 101 L 205 112 L 211 112 L 211 117 L 205.5 117 L 205 117.5 L 205 144 L 195 144 L 195 149 L 200 149 L 200 155 L 205 155 L 205 149 L 216 149 L 216 160 L 211 160 L 211 168 L 205.5 168 L 205 168.5 L 205 184 L 189.5 184 L 189 189 L 184 189 L 184 179 L 179 179 L 179 184 L 173 184 L 173 173 L 168 173 L 168 179 L 160 179 L 160 168 L 155 168 L 155 179 L 144 179 L 144 184 L 139 184.5 L 139 200 L 133 200 L 133 189.5 L 128 189 L 128 179 L 133 179 L 133 173 L 139 173 L 139 179 L 144 179 L 144 149 L 139 149 L 138.5 144 L 128 144 Q 130.5 151.5 123 149 L 123 144 Q 130.5 146.5 128 139 L 117.5 139 L 117 144 L 112 144 Q 109.5 136.5 117 139 L 117 133 L 128 133 L 128 123 L 144 123 L 144 128 L 139 128.5 L 139 139 L 154.5 139 L 155 144 L 160 144 L 160.5 139 L 178.5 139 L 179 138.5 L 179 133 L 195 133 L 195 107 L 179.5 107 L 179 106.5 L 179 101 L 173 101 L 173 107 L 160 107 L 160 101 L 144 101 L 144 107 L 155 107 L 155 112 L 139.5 112 L 139 117 L 128 117 L 128 112 Q 135.5 114.5 133 107 L 128 107 L 128 101 L 143.5 101 L 144 96 L 154.5 96 L 155 93 Z M 200 96 Q 198 104 205 101 Q 208 94 200 96 Z M 200 112 Q 198 120 205 117 Q 208 110 200 112 Z M 179 139 L 179 149 L 184 149 L 184 139 L 179 139 Z M 160 144 L 160 149 L 163 149 L 163 144 L 160 144 Z M 149 155 L 149 163 L 155 163 L 155 155 L 149 155 Z M 195 160 L 195 163 L 200 163 L 200 160 L 195 160 Z " /><path fill="rgb(37,36,70)" stroke="rgb(37,36,70)" stroke-width="1" opacity="1" d="M 363 133 L 368 133 L 368 144 Q 360.5 141.5 363 149 L 368 149 L 368 155 L 352.5 155 L 352 160 L 349 160 L 349 149 L 357 149 L 357 144 L 363 144 L 363 133 Z " /><path fill="rgb(37,36,70)" stroke="rgb(37,36,70)" stroke-width="1" opacity="1" d="M 128 160 L 133 160 L 133 163 L 128 163 L 128 160 Z " /><path fill="rgb(37,36,70)" stroke="rgb(37,36,70)" stroke-width="1" opacity="1" d="M 333 160 L 343.5 160 L 344 163 Q 336.5 160.5 339 168 L 344 168 L 344 179 L 339 179 L 339 168 L 333 168 L 333 184 L 339 184 Q 336.5 191.5 344 189 L 344 195 L 333 195 L 333 200 L 352 200 L 352 211 L 363 211 L 363 205 L 357 205 L 357 200 L 363 200 Q 360.5 192.5 368 195 L 368 244.5 L 373 245.5 L 373 291 L 352 291 L 352 296 L 349 296 L 349 301 L 344 301 L 344 291 L 339 291 L 339 301 L 328 301 L 328 288 L 339 288 L 339 277 L 344 277 L 344 272 L 349 271.5 L 349 256 L 357 256 L 357 251 L 349 251 L 349 245 L 352 245 L 352 240 L 349 239.5 L 349 224 L 339.5 224 L 339 221 L 333 221 L 333 229 L 328 229 L 328 211.5 L 333 211 L 333 205 L 328 204.5 L 328 163 L 333 163 L 333 160 Z M 352 229 L 352 235 L 357 235 L 357 229 L 352 229 Z M 349 272 L 349 277 L 352 277 L 352 272 L 349 272 Z M 357 277 L 357 288 L 368 288 Q 371 281 363 283 L 363 277 L 357 277 Z " /><path fill="rgb(37,36,70)" stroke="rgb(37,36,70)" stroke-width="1" opacity="1" d="M 195 189 L 200 189.5 L 200 205 L 189 205 L 189 211 L 195 211 Q 192.5 218.5 200 216 L 200 229 L 205 229.5 L 205 245 L 200 245.5 L 200 261 L 205 261 L 205 267 L 195 267 L 194.5 272 L 179 272 L 179 261 L 173 261 L 173 282.5 L 168 283 L 168 288 L 163 288 L 163 307 Q 170.5 304.5 168 312 Q 160.5 309.5 163 317 L 173 317 L 173 323 L 184 323 L 184 328 Q 176.5 325.5 179 333 L 189 333 L 189 344 L 195 344 Q 192.5 351.5 200 349 L 200 363 L 195 363 L 195 352 L 189 352 L 189 357 L 184 357.5 L 184 379 L 189 379 L 189 373 L 200 373 L 200 379 L 195 379 L 195 384 L 189 384 Q 191.5 391.5 184 389 L 184 395 L 195 395 L 195 389 L 200 389 L 200 404.5 L 195 405 L 195 411 L 179.5 411 L 179 416 L 173 416 Q 175.5 408.5 168 411 L 167.5 416 L 155.5 416 L 154.5 419 L 128.5 419 L 128 424 L 123 424 L 123 419 L 112.5 419 L 112 418.5 L 112 389 L 123 389 L 123 384 Q 130.5 386.5 128 379 L 123 379 L 123 373 L 143.5 373 L 144 368 L 155 368 L 155 357 L 160 357 L 160 352 L 163 351.5 L 163 339 L 144.5 339 L 143.5 333 L 117.5 333 L 117 328 L 123 328 L 123 317 L 117 317 L 117 312 L 127.5 312 L 128 317 L 133 317 L 133 312 L 139 312 Q 136.5 304.5 144 307 L 144 301 L 149 301 L 149 272.5 L 149.5 272 L 155 272 L 155 267 L 144.5 267 L 144 272 L 139 272 Q 136.5 264.5 144 267 L 144 261 L 128.5 261 L 128 261.5 L 128 267 L 123 267 L 123 256 L 128 256 L 128 245.5 L 133 245 L 133 240 Q 125.5 242.5 128 235 Q 135.5 232.5 133 240 L 139 240 L 139 221.5 L 138.5 221 L 133 221 L 133 224 L 128 224 L 128 205 L 117 205 L 117 200 L 123 200 Q 120.5 192.5 128 195 L 128 204.5 L 133 205 L 133 211 L 148.5 211 L 149 216 L 155 216 L 155 211 L 163 211 L 163 205 L 173 205 L 173 200 L 183.5 200 L 184 195 L 189 195 L 189 200 L 195 200 L 195 189 Z M 163 211 Q 161 219 168 216 Q 171 209 163 211 Z M 168 216 L 168 221 L 161 221 L 160 224 L 155 224 L 155 240 L 160 240 L 160 245 L 163 246 L 163 251 L 173 251 L 173 256 L 179 256 Q 177 249 184 251 L 184 245 L 179 245 L 179 240 L 189 240 L 189 235 L 200 235 L 200 229 L 184 229 Q 182 222 189 224 L 189 216 Q 182 214 184 221 L 179 221 L 179 216 L 168 216 Z M 133 245 L 133 251 L 139 251 L 139 245 L 133 245 Z M 139 251 Q 137 259 144 256 Q 147 249 139 251 Z M 163 267 Q 161 275 168 272 Q 171 265 163 267 Z M 155 272 Q 153 280 160 277 Q 163 270 155 272 Z M 155 291 Q 153 299 160 296 Q 163 289 155 291 Z M 149 307 L 149 317 L 155 317 L 155 307 L 149 307 Z M 144 328 Q 142 336 149 333 Q 152 326 144 328 Z M 168 344 L 168 352 L 173 352 L 173 344 L 168 344 Z M 160 357 L 160 368 L 163 368 L 163 363 L 168 363 L 168 357 L 160 357 Z M 155 368 L 155 379 L 160 379 L 160 368 L 155 368 Z M 133 379 L 133 384 L 139 384 L 139 379 L 133 379 Z M 117 405 L 117 411 L 123 411 L 123 405 L 117 405 Z M 123 416 L 123 419 L 128 419 L 128 416 L 123 416 Z " /><path fill="rgb(37,36,70)" stroke="rgb(37,36,70)" stroke-width="1" opacity="1" d="M 168 235 Q 175.5 232.5 173 240 Q 165.5 242.5 168 235 Z " /><path fill="rgb(37,36,70)" stroke="rgb(37,36,70)" stroke-width="1" opacity="1" d="M 200 272 L 205 272 L 205 283 L 200 283 L 200 272 Z " /><path fill="rgb(37,36,70)" stroke="rgb(37,36,70)" stroke-width="1" opacity="1" d="M 173 296 L 179 296 L 179 301 L 173 301 L 173 296 Z " /><path fill="rgb(37,36,70)" stroke="rgb(37,36,70)" stroke-width="1" opacity="1" d="M 189 296 L 195 296 L 195 301 L 189 301 L 189 296 Z " /><path fill="rgb(37,36,70)" stroke="rgb(37,36,70)" stroke-width="1" opacity="1" d="M 333 307 L 344 307 L 344 317 L 333 317 L 333 328 L 339 328 Q 336.5 320.5 344 323 L 344 333 L 339 333.5 L 339 349 L 333 349 L 333 344 L 323.5 344 L 323 343.5 L 323 317 L 333 317 L 333 307 Z " /><path fill="rgb(37,36,70)" stroke="rgb(37,36,70)" stroke-width="1" opacity="1" d="M 349 307 L 352 307 L 352 312 L 349 312 L 349 307 Z " /><path fill="rgb(37,36,70)" stroke="rgb(37,36,70)" stroke-width="1" opacity="1" d="M 179 312 L 189 312 L 189 317 L 179 317 L 179 312 Z " /><path fill="rgb(37,36,70)" stroke="rgb(37,36,70)" stroke-width="1" opacity="1" d="M 195 333 L 200 333 L 200 339 L 195 339 L 195 333 Z " /><path fill="rgb(37,36,70)" stroke="rgb(37,36,70)" stroke-width="1" opacity="1" d="M 368 333 L 373 333.5 L 373 373 L 368 373.5 L 368 416 L 357 416 L 357 411 L 349 411 L 349 400 L 344 400 L 344 416 L 352 416 L 352 419 L 349 419 L 349 424 L 344 424 L 344 429 L 339 429 L 339 435 L 344 435.5 L 344 451 L 333 451 L 333 456 L 344 456 L 344 467 L 339 467 L 338.5 472 L 328 472 L 328 461.5 L 333 461 L 333 456 L 328 455.5 L 328 411 L 339 411 L 339 405 L 328 405 L 328 395 L 343.5 395 L 344 394.5 L 344 389 L 349 389 L 349 395 L 352 395 L 352 389 L 357 389 L 357 395 L 363 395 L 363 384 L 352 384 L 352 379 L 357 379 L 357 373 L 352 373 L 352 357.5 L 349 357 L 349 363 L 344 363 L 344 357 Q 351.5 359.5 349 352 L 344 352 L 344 339 L 349 339 L 349 344 L 352 344.5 L 352 352 Q 359.5 349.5 357 357 L 363 357 L 363 349 L 368 348.5 L 368 333 Z M 357 405 L 357 411 L 363 411 L 363 405 L 357 405 Z M 339 419 Q 337 427 344 424 Q 347 417 339 419 Z " /><path fill="rgb(37,36,70)" stroke="rgb(37,36,70)" stroke-width="1" opacity="1" d="M 123 339 Q 130.5 336.5 128 344 Q 120.5 346.5 123 339 Z " /><path fill="rgb(37,36,70)" stroke="rgb(37,36,70)" stroke-width="1" opacity="1" d="M 155 344 Q 162.5 341.5 160 349 Q 152.5 351.5 155 344 Z " /><path fill="rgb(37,36,70)" stroke="rgb(37,36,70)" stroke-width="1" opacity="1" d="M 352 435 Q 359.5 432.5 357 440 Q 349.5 442.5 352 435 Z " /><path fill="rgb(0,0,0)" stroke="rgb(0,0,0)" stroke-width="1" opacity="0" d="M 0 0 L 34.5 0 L 35 5 L 27 5 L 27 11 L 32 11 L 32 16 L 35 16 L 35 21 L 40 21 L 40 27 L 35 27 L 35 21 L 32 21 L 32 16 L 27 16 L 27 11 L 16 11 Q 13.5 18.5 21 16 L 21 21 L 16 21 L 16 32 L 21 32 L 21.5 35 L 27 35 L 27 45 L 32 45 L 32 40 L 35 40 L 35 45 L 32 45.5 L 32 51 L 35 51 L 35 56 L 32 56 L 32 66.5 L 27 67 L 27 72 L 35 72 L 35 83 L 40 83 Q 37.5 90.5 45 88 L 45 96 L 40 96 L 40 93 L 35 93 Q 36.5 97.5 32 96 L 32 101 L 35 101 L 35 107 L 40 107 L 40 112 L 35 112 L 35 107 L 32 107 Q 34.5 114.5 27 112 L 27 107 L 21 107 L 21 101 L 16 101 L 16 111.5 L 21 112 L 21 117 L 16 117 L 15.5 112 L 5 112 L 5 117 L 11 117 L 11 123 L 16 123 L 16 128 Q 23.5 125.5 21 133 L 27 133 L 27 139 L 35 139 L 35 144 L 32 144 L 31.5 149 L 11 149 L 11 155 L 31.5 155 L 32 160 Q 36.5 158.5 35 163 L 32 163 L 32 168 L 35 168.5 L 35 184 L 32 184.5 L 32 200 L 27 200 L 27 195 L 21 195 L 21 189 L 27 189 L 27 184 L 21 184 L 20.5 179 L 11 179 L 11 184 Q 18.5 181.5 16 189 L 11 189 L 11 195 Q 18.5 192.5 16 200 L 11 200.5 L 11 216 L 16 216 L 16 205 L 21 205 L 21 215.5 L 16 216 L 16 221 L 21 221 L 21.5 224 L 27 224 L 27 229 L 32 229 L 32 234.5 L 35 235 L 35 240 L 40 240 L 40 245 L 35 245.5 L 35 261 L 40 261 L 40 267 L 35 267 L 35 261 L 32 261 L 32 245 L 21.5 245 L 21 240 L 11 240 Q 8.5 247.5 16 245 L 16 251 L 21 251 L 21 261 L 16 261 L 16 267 Q 23.5 264.5 21 272 Q 13.5 269.5 16 277 L 27 277 L 27 295.5 L 32 296 L 32 291 L 35 291 L 35 296 L 44.5 296 L 45 301 L 51 301 L 51 307 Q 58.5 304.5 56 312 Q 48.5 314.5 51 307 L 45 307 L 45 301 L 35 301 L 35 296 L 32 296 Q 34.5 303.5 27 301 L 27 296 L 16 296 L 16 301 L 21 301 L 21 307 L 27 307 L 27 312 Q 34.5 309.5 32 317 L 21 317 L 21 323 L 40 323 L 40 328 L 45 328.5 L 45 339 L 40 339 L 40 333 L 35 333 L 35 344 L 45 344 L 45 351.5 L 45.5 352 L 61 352 L 61 363 L 67 363 L 67 368 Q 74.5 365.5 72 373 L 83 373 L 83 384 L 88 384 Q 85.5 391.5 93 389 L 93 395 L 96 395 L 96 400 L 101 400 L 101 405 L 107 405 L 107 419 L 112 419 L 112 424 Q 119.5 421.5 117 429 L 123 429 L 123 424 L 138.5 424 L 139.5 419 L 154.5 419 L 155.5 416 L 178.5 416 L 179.5 411 L 199.5 411 L 200 410.5 L 200 405 L 205 405 L 205 400 L 211 400 L 211 405 L 228.5 405 L 229 405.5 L 229 411 L 239.5 411 L 240 416 L 245 416 L 245 434.5 L 245.5 435 L 251 435 L 251 451 L 261 451 L 261 456 L 267 456 Q 264.5 463.5 272 461 L 272 467 L 283 467 L 283.5 472 L 306.5 472 L 307.5 477 L 323 477 L 323.5 472 L 339 472 L 339 467 L 344 467 L 344 461 L 352 461 L 352 456 L 367.5 456 L 368 455.5 L 368 373.5 L 373 372.5 L 373 245 L 368 244.5 L 368 189 L 373 188.5 L 373 149 L 368 148.5 L 368 133 Q 360.5 135.5 363 128 L 357 128 L 357 123 L 349 123 L 349 117 L 339 117 L 338.5 112 L 317.5 112 L 317 107 L 339 107 L 339 101 L 349 101 L 349 96 Q 353.5 97.5 352 93 L 363 93 L 363.5 88 L 379 88 L 379 83 L 389 83 L 389 77.5 L 389.5 77 L 416 77 L 416 82.5 L 416.5 83 L 434.5 83 L 435.5 88 L 450.5 88 L 451.5 93 L 466.5 93 L 467.5 96 L 477 96 Q 475.5 91.5 480 93 L 480 88 L 485 88 L 485 83 L 491 83 L 491 77 L 501 77 L 501 72 L 507 72 Q 504.5 64.5 512 67 L 512 512 L 0 512 L 0 224.5 L 5 224 L 5 221 L 0 221 L 0 211 L 5 211 L 5 205 L 0 204.5 L 0 128 Q 7.5 130.5 5 123 L 0 122.5 L 0 0 Z M 11 45 L 11 51 L 16 52 L 16 61 Q 24 64 21 56 L 27 56 L 27 51 L 21 51 L 21 45 L 11 45 Z M 21 77 L 21 83 L 27 83 L 27 88 L 35 88 L 35 83 L 32 83 L 32 77 L 21 77 Z M 11 88 L 11 96 L 21 96 L 21 93 L 16 93 L 16 88 L 11 88 Z M 27 101 L 27 107 L 32 107 L 32 101 L 27 101 Z M 5 128 L 5 133 L 11 133 L 11 144 L 27 144 L 27 139 L 21 139 L 21 133 L 16 133 L 16 128 L 5 128 Z M 11 160 L 11 163 L 16 163 L 16 168 L 21 168 L 21 179 L 32 179 L 32 169 L 27 168 L 27 160 L 11 160 Z M 5 195 L 5 200 L 11 200 L 11 195 L 5 195 Z M 11 224 Q 9 232 16 229 L 16 235 L 21 235 L 21 240 L 27 240 L 27 229 L 21 229 L 21 224 L 11 224 Z M 5 235 L 5 240 L 11 240 L 11 235 L 5 235 Z M 32 240 L 32 245 L 35 245 L 35 240 L 32 240 Z M 5 251 L 5 261 L 16 261 L 16 251 L 5 251 Z M 5 267 L 5 277 L 11 277 L 11 267 L 5 267 Z M 16 283 Q 14 291 21 288 Q 24 281 16 283 Z M 5 291 L 5 296 L 16 296 L 16 291 L 5 291 Z M 16 312 Q 14 320 21 317 Q 24 310 16 312 Z M 27 328 L 27 333 L 35 333 L 35 328 L 27 328 Z " /><path fill="rgb(0,0,0)" stroke="rgb(0,0,0)" stroke-width="1" opacity="0" d="M 40 61 L 45 61 L 45 67 L 51 67 L 51 72 L 45 72 Q 47.5 64.5 40 67 L 40 61 Z " /><path fill="rgb(0,0,0)" stroke="rgb(0,0,0)" stroke-width="1" opacity="0" d="M 27 117 L 32 117 L 32 127.5 L 35 128 L 35 133 L 32 133 L 32 128 L 27 128 L 27 117 Z " /><path fill="rgb(0,0,0)" stroke="rgb(0,0,0)" stroke-width="1" opacity="0" d="M 35 117 L 40 117 L 40 123 L 35 123 L 35 117 Z " /><path fill="rgb(0,0,0)" stroke="rgb(0,0,0)" stroke-width="1" opacity="0" d="M 27 211 L 32 211 L 32 220.5 L 35 221 L 35 224 Q 30.5 225.5 32 221 L 27 221 L 27 211 Z " /><path fill="rgb(0,0,0)" stroke="rgb(0,0,0)" stroke-width="1" opacity="0" d="M 35 272 L 40 272 L 40 283 L 35 283 L 35 272 Z " /><path fill="rgb(0,0,0)" stroke="rgb(0,0,0)" stroke-width="1" opacity="0" d="M 51 277 L 56 277 L 56 283 L 51 283 L 51 277 Z " /><path fill="rgb(0,0,0)" stroke="rgb(0,0,0)" stroke-width="1" opacity="0" d="M 56 296 Q 63.5 293.5 61 301 Q 53.5 303.5 56 296 Z " /><path fill="rgb(0,0,0)" stroke="rgb(0,0,0)" stroke-width="1" opacity="0" d="M 35 307 L 40 307 L 40 312 Q 47.5 309.5 45 317 L 40 317 L 40 312 Q 32.5 314.5 35 307 Z " /><path fill="rgb(12,181,227)" stroke="rgb(12,181,227)" stroke-width="1" opacity="1" d="M 32 56 L 35 56 L 35 61 L 32 61 L 32 56 Z " /><path fill="rgb(12,181,227)" stroke="rgb(12,181,227)" stroke-width="1" opacity="1" d="M 40 56 Q 47.5 53.5 45 61 Q 37.5 63.5 40 56 Z " /><path fill="rgb(12,181,227)" stroke="rgb(12,181,227)" stroke-width="1" opacity="1" d="M 35 67 L 45 67 L 45 77 L 40 77 L 40 72 Q 32.5 74.5 35 67 Z " /><path fill="rgb(12,181,227)" stroke="rgb(12,181,227)" stroke-width="1" opacity="1" d="M 56 67 L 67 67 L 67 72 L 56 72 L 56 67 Z " /><path fill="rgb(12,181,227)" stroke="rgb(12,181,227)" stroke-width="1" opacity="1" d="M 72 67 L 77 67 L 77 77 L 72 77 L 72 83 L 77 83 L 77 96 L 88 96 L 88 101 L 77 101 L 77 96 L 67 96 L 67 93 L 61 93 L 61 88 L 67 88 L 67 83 L 61 83 L 61 77 L 72 77 L 72 67 Z " /><path fill="rgb(12,181,227)" stroke="rgb(12,181,227)" stroke-width="1" opacity="1" d="M 93 93 L 117 93 L 117 101 L 122.5 101 L 123 101.5 L 123 117 L 133 117 L 133 123 L 117.5 123 L 117 128 L 107 128 L 107 123 L 96 123 L 96 117 L 88 117 L 88 107 L 93 107 L 93 112 L 96 112 L 96 96.5 L 93 96 L 93 93 Z M 107 96 Q 105 104 112 101 Q 115 94 107 96 Z " /><path fill="rgb(12,181,227)" stroke="rgb(12,181,227)" stroke-width="1" opacity="1" d="M 40 101 L 45 101 L 45 107 L 51 107 L 51 117 L 45 117 Q 47.5 109.5 40 112 L 40 101 Z " /><path fill="rgb(12,181,227)" stroke="rgb(12,181,227)" stroke-width="1" opacity="1" d="M 72 128 Q 79.5 125.5 77 133 L 83 133 L 83 143.5 L 88 144 L 88 155 L 77 155 L 77 149 Q 69.5 151.5 72 144 L 56.5 144 L 56 139 L 67 139 L 67 133 Q 74.5 135.5 72 128 Z " /><path fill="rgb(12,181,227)" stroke="rgb(12,181,227)" stroke-width="1" opacity="1" d="M 96 144 L 101 144 L 101 155 L 107 155 L 107 149 L 116.5 149 L 117 144 L 123 144 Q 120.5 151.5 128 149 Q 125.5 141.5 133 144 L 133 149 L 128 149.5 L 128 160 L 123 160 L 123 163 L 117 163 L 117 168 L 112 168 L 112 160 L 101.5 160 L 101 155 L 96 155 L 96 144 Z " /><path fill="rgb(12,181,227)" stroke="rgb(12,181,227)" stroke-width="1" opacity="1" d="M 256 144 L 276.5 144 L 277.5 149 L 295.5 149 L 296 149.5 L 296 155 L 307 155 L 307 160 L 291.5 160 L 290.5 155 L 272.5 155 L 272 154.5 L 272 149 L 256.5 149 L 256 144 Z " /><path fill="rgb(12,181,227)" stroke="rgb(12,181,227)" stroke-width="1" opacity="1" d="M 35 155 L 51 155 L 51 163 L 61 163 L 61 168 L 45 168 L 45 163 L 40 163 L 40 160 L 35 160 L 35 155 Z " /><path fill="rgb(12,181,227)" stroke="rgb(12,181,227)" stroke-width="1" opacity="1" d="M 245 160 L 255.5 160 L 256 163 Q 248.5 160.5 251 168 L 261 168 L 261 173 L 267 173 L 267 179 L 282.5 179 L 283 184 L 291 184 Q 288.5 176.5 296 179 L 296.5 184 L 312 184 L 312 195 L 307 195 L 307 205 L 296 205 L 296 200 L 288 200 L 288 210.5 L 291 211 L 291 216 L 283 216 L 283 205 L 277 205 L 277 211 L 267 211 L 267 205 L 261 205 L 261 216 L 256 216 L 256 200 Q 248.5 202.5 251 195 L 245 195 L 245 189 L 251 189 L 251 184 L 245.5 184 L 245 183.5 L 245 160 Z M 272 184 Q 270 192 277 189 Q 280 182 272 184 Z M 301 189 L 301 195 L 307 195 L 307 189 L 301 189 Z M 272 195 Q 270 203 277 200 Q 280 193 272 195 Z " /><path fill="rgb(12,181,227)" stroke="rgb(12,181,227)" stroke-width="1" opacity="1" d="M 67 168 L 72 168 L 72 179 L 67 179 L 67 168 Z " /><path fill="rgb(12,181,227)" stroke="rgb(12,181,227)" stroke-width="1" opacity="1" d="M 77 168 L 93 168 L 93 173 L 96 173.5 L 96 179 L 101 179 L 101 189 L 96 189 L 96 199.5 L 93 200 L 93 195 L 83 195 L 83 189 L 77 189 L 77 195 L 67 195 L 67 189 L 72 189 Q 69.5 181.5 77 184 L 77 168 Z M 83 173 L 83 179 L 88 179 L 88 173 L 83 173 Z M 93 179 L 93 184 L 96 184 L 96 179 L 93 179 Z " /><path fill="rgb(12,181,227)" stroke="rgb(12,181,227)" stroke-width="1" opacity="1" d="M 272 168 L 287.5 168 L 288 173 L 272.5 173 L 272 168 Z " /><path fill="rgb(12,181,227)" stroke="rgb(12,181,227)" stroke-width="1" opacity="1" d="M 32 189 L 40 189 L 40 195 L 45 195 L 45 189 L 51 189 L 51 195 L 56 195 L 56 200 Q 63.5 197.5 61 205 L 56 205 L 56 211 Q 63.5 208.5 61 216 L 51 216 L 51 205 L 45 205 L 45 211 L 40 211 L 40 200 L 35 200 L 35 195 L 32 194.5 L 32 189 Z " /><path fill="rgb(12,181,227)" stroke="rgb(12,181,227)" stroke-width="1" opacity="1" d="M 107 216 Q 114.5 213.5 112 221 L 127.5 221 L 128 224 Q 120.5 221.5 123 229 L 128 229 L 128 240 L 117.5 240 L 117 245 L 107 245 L 107 240 L 96 240 L 96 229 Q 103.5 231.5 101 224 L 96 224 L 96 221 L 101 221 L 101.5 224 L 107 224 L 107 216 Z M 107 235 Q 105 243 112 240 Q 115 233 107 235 Z " /><path fill="rgb(12,181,227)" stroke="rgb(12,181,227)" stroke-width="1" opacity="1" d="M 267 216 L 277 216 L 277 221 L 267 221 L 267 216 Z " /><path fill="rgb(12,181,227)" stroke="rgb(12,181,227)" stroke-width="1" opacity="1" d="M 133 229 L 139 229 L 139 235 L 133 235 L 133 229 Z " /><path fill="rgb(12,181,227)" stroke="rgb(12,181,227)" stroke-width="1" opacity="1" d="M 307 229 L 317 229 L 317 235 Q 309.5 232.5 312 240 L 322.5 240 L 323 235 L 333 235 L 333 240 L 328 240.5 L 328 251 L 333 251.5 L 333 267 L 328 267 Q 330.5 274.5 323 272 L 323 267 L 312 267 L 312 261 L 307 261 L 307 272 L 317 272 L 317 283 L 312 283 L 312 277 L 301 277 L 301 272 L 288 272 L 288 267 L 272 267 Q 274.5 274.5 267 272 L 267 261.5 L 272 261 L 272 251 L 277 251 L 277 240 L 283 240 Q 280.5 247.5 288 245 L 288 235 L 296 235 Q 293.5 242.5 301 240 L 301 235 L 307 235 L 307 229 Z M 277 251 L 277 261 L 283 261 Q 281 254 288 256 L 288 251 L 277 251 Z M 317 251 L 317 256 L 323 256 L 323 251 L 317 251 Z " /><path fill="rgb(12,181,227)" stroke="rgb(12,181,227)" stroke-width="1" opacity="1" d="M 267 240 Q 274.5 237.5 272 245 Q 264.5 247.5 267 240 Z " /><path fill="rgb(12,181,227)" stroke="rgb(12,181,227)" stroke-width="1" opacity="1" d="M 56 251 L 67 251 Q 64.5 258.5 72 256 L 72 261 L 67 261 L 67 267 L 72 267 L 72 277 L 67 277 L 66.5 272 L 51 272 L 51 267 L 56 266.5 L 56 251 Z " /><path fill="rgb(12,181,227)" stroke="rgb(12,181,227)" stroke-width="1" opacity="1" d="M 107 267 L 127.5 267 L 128 272 L 117 272 L 117 277 L 123 277 L 123 283 L 117 283 L 117 288 L 123 288 L 123 291 L 117 291 L 117 296 L 123 296 L 123 301 L 112 301 L 112 296 L 107 296 L 107 291 L 101.5 291 L 101 288 L 96 288 L 96 283 L 101 283 L 101 277 L 107 277 L 107 267 Z " /><path fill="rgb(12,181,227)" stroke="rgb(12,181,227)" stroke-width="1" opacity="1" d="M 67 283 Q 74.5 280.5 72 288 Q 64.5 290.5 67 283 Z " /><path fill="rgb(12,181,227)" stroke="rgb(12,181,227)" stroke-width="1" opacity="1" d="M 261 288 L 271.5 288 L 272.5 291 L 287.5 291 L 288 296 Q 280.5 293.5 283 301 L 296 301 L 296 296 Q 288.5 298.5 291 291 L 296 291 L 296.5 296 L 307 296 L 307 312 L 317 312 L 317 317 L 307 317 L 307 328 Q 314.5 325.5 312 333 L 307 333 L 307 338.5 L 306.5 339 L 283 339 L 283 333 L 277 333 L 277 328 L 267.5 328 L 267 323 L 261 323 Q 263.5 330.5 256 328 L 256 323 L 245 323 L 245 317 L 240 317 L 240 291 L 250.5 291 L 251 296 L 256 296 L 256 291 L 261 291 L 261 288 Z M 267 307 Q 265 315 272 312 Q 275 305 267 307 Z M 291 307 Q 289 315 296 312 Q 299 305 291 307 Z M 288 328 L 288 333 L 291 333 L 291 328 L 288 328 Z M 301 328 L 301 333 L 307 333 L 307 328 L 301 328 Z " /><path fill="rgb(12,181,227)" stroke="rgb(12,181,227)" stroke-width="1" opacity="1" d="M 77 323 L 83 323 L 83 328 Q 90.5 325.5 88 333 L 96 333 L 96 339 L 93 339.5 L 93 357 L 88 357 L 88 352 L 77.5 352 L 76.5 349 L 67 349 L 67 328 L 77 328 L 77 323 Z M 77 328 L 77 333 L 83 333 L 83 328 L 77 328 Z M 72 333 L 72 339 L 77 339 L 77 333 L 72 333 Z " /><path fill="rgb(12,181,227)" stroke="rgb(12,181,227)" stroke-width="1" opacity="1" d="M 261 333 L 267 333 L 267 339 L 261 339 L 261 333 Z " /><path fill="rgb(12,181,227)" stroke="rgb(12,181,227)" stroke-width="1" opacity="1" d="M 277 349 L 282.5 349 L 283 352 L 288 352 L 288 349 L 296 349 L 296 352 L 288 352 L 288 357 L 296 357 L 296 363 L 301 363 L 301 357.5 L 301.5 357 L 339 357 L 339 372.5 L 338.5 373 L 333 373 L 333 384 L 317.5 384 L 317 389 L 323 389 L 323 395 L 317 395 L 317 389 L 312 389 L 311.5 384 L 288 384 L 288 373 L 283 373 L 283 379 L 277 379 L 277 373 L 272 373 L 272 368 Q 264.5 370.5 267 363 L 272 363 Q 269.5 370.5 277 368 L 277 363 L 283 363 L 283 357 L 272 357 L 272 352 L 277 352 L 277 349 Z " /><path fill="rgb(12,181,227)" stroke="rgb(12,181,227)" stroke-width="1" opacity="1" d="M 307 349 L 312 349 L 312 352 L 307 352 L 307 349 Z " /><path fill="rgb(12,181,227)" stroke="rgb(12,181,227)" stroke-width="1" opacity="1" d="M 251 384 L 261 384 L 261 389 L 267 389 L 267 395 L 261 395 L 261 400 L 290.5 400 L 291 405 L 288 405 L 288 411 L 296 411 Q 293.5 418.5 301 416 L 301 405 L 307 405 L 307 411 L 312 411.5 L 312 429 L 301 429 L 301 435 L 312 435 L 312 440 Q 304.5 437.5 307 445 L 301 445 L 301 440 L 291 440 L 290.5 445 L 272 445 L 272 440 L 261 440 L 261 429 L 256 429 Q 258.5 421.5 251 424 L 251 429 L 245 429 L 245 416.5 L 240 416 L 240 411 L 245 411 L 245 395.5 L 245.5 395 L 251 395 L 251 384 Z M 251 405 L 251 416 L 256 416 L 256 405 L 251 405 Z M 267 411 Q 265 419 272 416 Q 275 409 267 411 Z M 261 419 L 261 424 L 267 424 L 267 419 L 261 419 Z M 301 419 L 301 424 L 307 424 L 307 419 L 301 419 Z " /><path fill="rgb(32,53,98)" stroke="rgb(32,53,98)" stroke-width="1" opacity="1" d="M 35 0 L 295.5 0 L 296 5 L 301 5 L 301 11 L 307 11 L 307 16 L 317 16 L 317.5 21 L 328 21 L 328 27 L 348.5 27 L 349.5 32 L 367.5 32 L 368 35 L 373 35 L 373 40 L 363 40 L 362.5 45 L 349 45 L 349 50.5 L 348.5 51 L 333 51 L 333 56 Q 325.5 53.5 328 61 L 317 61 L 317 67 L 296.5 67 L 296 72 L 283 72 L 282.5 77 L 267 77 L 267 83 L 251.5 83 L 250.5 88 L 229.5 88 L 228.5 93 L 155.5 93 L 154.5 96 L 144 96 L 144 101 L 159.5 101 L 160 101.5 L 160 107 L 173 107 L 173 101 L 179 101 L 179 107 L 195 107 L 195 133 L 179 133 L 179 139 L 184 139 L 184 149 L 179 149 L 179 139 L 160 139 L 160 144 L 163 144 L 163 149 L 160 149 L 160 144 L 155 144 L 155 139 L 139 139 L 139 128 Q 146.5 130.5 144 123 L 139 123 L 139 112 L 154.5 112 L 155 107 L 144.5 107 L 144 106.5 L 144 101 L 133 101 L 133 96 L 128 96 L 128 93 L 123 93 L 123 88 L 112 88 L 112 83 L 93 83 L 93 96 L 83 96 L 83 88 L 88 87.5 L 88 72 L 77 72 L 77 61 L 67.5 61 L 67 56 L 61 56 L 61 61 L 56 61.5 L 56 87.5 L 51 88 L 51 93 L 56 93 L 56 96 L 61 96 L 61 101 L 67 101 L 67 107 L 72 107 L 72 112 Q 79.5 109.5 77 117 L 83 117 L 83 101.5 L 88 101 L 88 123 Q 95.5 120.5 93 128 L 101 128 L 101 133 L 112 133 L 112 144 Q 104.5 146.5 107 139 L 101 139 L 101 144 L 96 144.5 L 96 163 L 101 163 L 101.5 168 L 112 168 L 112 173 L 107 173 L 107 179 L 117 179 L 117 173 L 128 173 L 128 168 Q 120.5 170.5 123 163 L 132.5 163 L 133 160 L 128 160 L 128 149 Q 135.5 151.5 133 144 L 139 144 L 139 149 L 144 149.5 L 144 179 L 155 179 L 155 168 L 160 168 L 160 179 L 168 179 L 168 173 L 173 173 L 173 184 L 179 184 Q 176.5 176.5 184 179 L 184 188.5 L 189 189 L 189 195 L 184 195 L 183.5 200 L 173 200 L 173 205 L 163 205 L 163 211 Q 170.5 208.5 168 216 L 178.5 216 L 179 221 L 184 221 Q 181.5 213.5 189 216 L 189 224 L 184 224.5 L 184 240 Q 176.5 237.5 179 245 L 184 245 L 184 251 Q 176.5 248.5 179 256 L 173 256 L 173 251 L 163 251 L 163 245.5 L 160 245 L 160 240 L 155 240 L 155 224 L 160 224 L 160.5 221 L 168 221 L 168 216 Q 160.5 218.5 163 211 L 155 211 L 155 216 L 149 216 L 149 211 L 133.5 211 L 133 210.5 L 133 205 L 128 205 L 128 220.5 L 123 221 L 123 216 L 107.5 216 L 107 211 L 101 211 L 101 216 L 93 216 Q 95.5 208.5 88 211 L 88 216 L 77 216 L 77 221 L 88 221 L 88 235 L 93 235.5 L 93 251 L 101 251 L 101 256 L 107 256 L 107.5 251 L 128 251 L 128 256 L 123 256.5 L 123 267 L 117 267 L 117 261 L 107 261 L 107 267 L 96 267 L 96 276.5 L 93 277 L 93 283 L 96 283 L 96 291 Q 91.5 292.5 93 288 L 88 288 L 88 296 L 93 296 L 93 306.5 L 96 307 L 96 296 L 101 296 L 101 307 L 107 307 Q 104.5 314.5 112 312 Q 109.5 304.5 117 307 L 117 317 L 122.5 317 L 123 317.5 L 123 328 L 117 328 L 117 333 L 143.5 333 L 144 328 L 149 328 Q 151.5 335.5 144 333 L 144 339 L 163 339 L 163 352 L 160 352 L 160 357 L 168 357 L 168 363 L 163 363 L 163 368 L 160 368.5 L 160 379 L 155 379 L 155 368 L 144 368 L 143.5 373 L 123 373 L 123 379 Q 130.5 376.5 128 384 L 123 384 L 122.5 389 L 112 389 L 112 419 L 122.5 419 L 123 416 L 128 416 L 128.5 419 L 139 419 L 139 424 L 128.5 424 L 128 419 L 123 419 L 123 429 L 117 429 L 117 424 L 112 424 Q 114.5 416.5 107 419 L 107 405 L 101 405 L 101 400 L 96 400 L 96 395 L 93 395 L 93 389 L 88 389 Q 90.5 381.5 83 384 L 83 373 L 72 373 L 72 368 Q 64.5 370.5 67 363 L 61 363 L 61 357 L 67 357 Q 64.5 349.5 72 352 L 72 357 L 83 357 L 83 363 L 101 363 L 101 357 L 96 356.5 L 96 344 L 107 344 L 107 339 L 101 339 L 101 333 L 96 333 L 96 328 L 93 328 L 93 323 L 88 323 L 88 317 L 77 317 L 77 301 L 67 301 L 67 322.5 L 72 323 L 72 328 L 67 328 L 66.5 323 L 56 323 L 55.5 328 L 40 328 L 39.5 323 L 21 323 L 21 317 Q 13.5 319.5 16 312 L 21 312 L 21.5 317 L 32 317 L 32 312 Q 24.5 314.5 27 307 L 21 307 L 21 301 Q 13.5 303.5 16 296 L 5 296 L 5 291 L 15.5 291 L 16 296 L 27 296 L 27 283.5 L 32 283 L 32 277 L 16.5 277 L 16 272 Q 23.5 274.5 21 267 L 16 267 L 16 261 L 5 261 L 5 251 L 16 251 L 16 245 Q 8.5 247.5 11 240 L 5 240 L 5 235 L 11 235 L 11.5 240 L 21 240 L 21 235 L 16 235 L 16 229 Q 8.5 231.5 11 224 L 20.5 224 L 21 221 L 16 221 Q 18.5 213.5 11 216 L 11 200.5 L 10.5 200 L 5 200 L 5 195 L 11 195 L 11 189 Q 18.5 191.5 16 184 Q 8.5 186.5 11 179 L 21 179 L 21 168 L 16 168 L 16 163 L 11 163 L 11 160 L 20.5 160 L 21 163 L 27 163 L 27 168 L 32 168.5 L 32 179 L 21 179 L 21 184 L 27 184 L 27 189 L 21 189 L 21 195 L 27 195 Q 24.5 202.5 32 200 L 32 205 L 35 205.5 L 35 211 L 40 211 L 40 221 L 45 221 L 45 216 L 51 216 L 51 229 L 56 229 L 56 221 L 67 221 L 67 216 Q 74.5 218.5 72 211 L 67 211 L 67 195.5 L 66.5 195 L 61 195 L 61 189 L 45.5 189 L 45 184 L 35 184 L 35 189 L 32 189 L 32 184 L 35 183.5 L 35 173 L 45 173 L 45 179 L 56 179 L 56 173 L 61 172.5 L 61 163 L 71.5 163 L 72 160 L 61 160 L 61 155 L 51 155 L 51 149 L 45 149 L 45 144 L 35.5 144 L 35 139 L 27 139 L 26.5 144 L 11 144 L 11 133 L 5 133 Q 7.5 125.5 0 128 L 0 123 L 5 123 L 5.5 128 L 16 128 L 16 123 L 11 123 L 11 117 L 5 117 L 5 112 L 16 112 L 16 101 L 21 101 L 21 107 L 26.5 107 L 27 107.5 L 27 128 L 32 128 L 32 133 L 35 133 Q 32.5 125.5 40 128 Q 37.5 135.5 45 133 L 45 128 L 51 128 Q 48.5 120.5 56 123 L 56 101 Q 48.5 103.5 51 96 L 45 96 L 45 77 L 50.5 77 L 51 76.5 L 51 56 L 45 56 L 45 51 L 40 51 L 40 45 L 35 45 L 35 40 L 32 40 Q 34.5 47.5 27 45 L 27 35 L 21.5 35 L 21 32 L 16 32 L 16 21 Q 23.5 23.5 21 16 Q 13.5 18.5 16 11 L 27 11 L 27 5 L 35 5 L 35 0 Z M 27 11 Q 25 19 32 16 Q 35 9 27 11 Z M 32 16 L 32 21 L 35 21 L 35 16 L 32 16 Z M 35 21 L 35 27 L 40 27 L 40 21 L 35 21 Z M 16 112 Q 14 120 21 117 Q 24 110 16 112 Z M 67 123 L 67 128 L 61 128 Q 64 136 56 133 L 56 144 Q 64 142 61 149 L 67 149 L 67 155 L 77 155 L 78 160 L 93 160 Q 96 153 88 155 L 88 149 L 93 149 L 93 133 L 88 133 L 88 128 L 77 128 L 77 123 L 67 123 Z M 16 128 Q 14 136 21 133 Q 24 126 16 128 Z M 21 133 L 21 139 L 27 139 L 27 133 L 21 133 Z M 133 155 L 133 160 L 139 160 L 139 155 L 133 155 Z M 67 168 L 67 195 L 72 195 L 73 200 L 83 200 L 83 205 L 101 205 L 101 200 L 107 200 L 107 189 L 112 189 L 112 200 Q 120 203 117 195 L 123 195 L 123 189 L 117 189 L 117 184 L 107 184 L 107 179 L 101 179 L 101 173 L 93 173 L 93 168 L 67 168 Z M 133 173 L 133 179 L 128 179 L 128 189 L 133 190 L 133 200 L 139 200 L 139 185 L 144 184 Q 147 177 139 179 L 139 173 L 133 173 Z M 56 179 Q 54 187 61 184 Q 64 177 56 179 Z M 11 195 Q 9 203 16 200 Q 19 193 11 195 Z M 123 195 L 123 200 L 117 200 L 117 211 L 123 211 L 123 205 L 128 205 L 128 195 L 123 195 Z M 16 205 L 16 216 L 21 216 L 21 205 L 16 205 Z M 27 211 L 27 221 L 32 221 Q 31 226 35 224 L 35 216 L 32 216 L 32 211 L 27 211 Z M 21 224 L 21 229 L 27 229 L 27 224 L 21 224 Z M 40 224 Q 38 232 45 229 Q 48 222 40 224 Z M 77 224 L 77 229 L 83 229 L 83 224 L 77 224 Z M 27 229 L 27 240 L 21 240 L 21 245 L 32 245 L 32 261 L 35 261 L 35 267 L 40 267 Q 43 275 35 272 L 35 283 L 51 283 L 51 291 L 67 291 L 67 296 L 77 296 L 77 291 L 83 291 L 83 277 L 77 277 L 77 272 L 88 272 L 88 251 L 83 252 L 83 267 L 77 267 L 77 246 L 72 245 L 72 240 L 67 240 L 67 235 L 61 235 Q 64 243 56 240 L 56 245 L 40 245 L 40 240 L 35 240 L 35 235 L 32 235 L 32 229 L 27 229 Z M 51 235 Q 49 243 56 240 Q 59 233 51 235 Z M 168 235 Q 166 243 173 240 Q 176 233 168 235 Z M 83 240 Q 81 248 88 245 Q 91 238 83 240 Z M 16 251 L 16 261 L 21 261 L 21 251 L 16 251 Z M 93 256 L 93 261 L 96 261 L 96 256 L 93 256 Z M 32 291 L 32 296 L 35 296 L 35 291 L 32 291 Z M 27 296 Q 25 304 32 301 Q 35 294 27 296 Z M 35 296 L 35 301 L 45 301 L 45 296 L 35 296 Z M 56 296 Q 54 304 61 301 Q 64 294 56 296 Z M 45 301 L 45 307 L 51 307 L 51 301 L 45 301 Z M 35 307 Q 33 315 40 312 Q 43 305 35 307 Z M 51 307 Q 49 315 56 312 L 56 317 L 61 317 L 61 307 L 51 307 Z M 40 312 Q 38 320 45 317 Q 48 310 40 312 Z M 88 312 Q 86 320 93 317 Q 96 310 88 312 Z M 96 312 Q 94 320 101 317 Q 104 310 96 312 Z M 101 323 L 101 328 L 107 328 L 107 323 L 101 323 Z M 123 339 Q 121 347 128 344 Q 131 337 123 339 Z M 112 344 Q 115 352 107 349 L 107 357 Q 115 360 112 352 L 117 352 L 117 344 L 112 344 Z M 155 344 Q 153 352 160 349 Q 163 342 155 344 Z M 155 357 L 155 368 L 160 368 L 160 357 L 155 357 Z M 93 368 L 93 373 L 107 373 L 107 368 L 93 368 Z M 107 373 L 107 384 L 112 384 L 112 373 L 107 373 Z " /><path fill="rgb(32,53,98)" stroke="rgb(32,53,98)" stroke-width="1" opacity="1" d="M 11 45 L 21 45 L 21 51 L 27 51 L 27 56 L 21 56 Q 23.5 63.5 16 61 L 16 51.5 L 11 51 L 11 45 Z " /><path fill="rgb(32,53,98)" stroke="rgb(32,53,98)" stroke-width="1" opacity="1" d="M 27 67 Q 34.5 64.5 32 72 Q 24.5 74.5 27 67 Z " /><path fill="rgb(32,53,98)" stroke="rgb(32,53,98)" stroke-width="1" opacity="1" d="M 21 77 L 32 77 L 32 82.5 L 35 83 L 35 88 L 27 88 L 27 83 L 21 83 L 21 77 Z " /><path fill="rgb(32,53,98)" stroke="rgb(32,53,98)" stroke-width="1" opacity="1" d="M 11 88 L 16 88 L 16 93 L 21 93 L 21 96 L 11 96 L 11 88 Z " /><path fill="rgb(32,53,98)" stroke="rgb(32,53,98)" stroke-width="1" opacity="1" d="M 123 101 L 128 101 L 128 107 L 123 107 L 123 101 Z " /><path fill="rgb(32,53,98)" stroke="rgb(32,53,98)" stroke-width="1" opacity="1" d="M 307 107 L 317 107 L 317.5 112 L 339 112 L 339 117 L 349 117 L 349 123 L 357 123 L 357 128 L 363 128 L 363 144 L 368 144 L 368 149 L 373 149.5 L 373 189 L 368 189 L 368 195 Q 360.5 192.5 363 200 L 357 200 L 357 205 L 363 205 L 363 211 L 352 211 L 352 200 L 333.5 200 L 333 195 L 344 195 L 344 189 Q 336.5 191.5 339 184 L 333 184 L 333 168 L 339 168 L 339 163 L 344 163 L 344 160 L 333.5 160 L 332.5 163 L 323 163 L 322.5 160 L 307 160 L 306.5 155 L 296 155 L 296 149.5 L 295.5 149 L 277.5 149 L 276.5 144 L 256 144 L 256.5 149 L 272 149 L 272 155 L 290.5 155 L 291 160 L 300.5 160 L 301.5 163 L 317 163 L 317 168 L 328 168 L 328 173 L 317 173 L 317 179 L 323 179 L 323 184 Q 330.5 181.5 328 189 L 323 189 L 323 195 L 317 195 L 317 184 L 307 184 L 307 179 L 301 179 L 301 173 L 288 173 L 287.5 168 L 272 168 L 272 163 L 267 163 L 267 160 L 251.5 160 L 251 155 L 256 155 L 256 149 Q 248.5 151.5 251 144 L 256 144 L 256 133 L 267 133 L 267.5 128 L 283 128 L 283 123 L 291 123 L 291 117 Q 298.5 119.5 296 112 L 307 112 L 307 107 Z M 357 144 L 357 149 L 349 149 L 349 160 L 352 160 L 353 155 L 368 155 L 368 149 Q 361 152 363 144 L 357 144 Z M 272 160 L 273 163 L 283 163 L 283 160 L 272 160 Z M 288 163 L 288 168 L 291 168 L 291 163 L 288 163 Z M 301 168 L 301 173 L 312 173 L 312 168 L 301 168 Z M 339 168 L 339 179 L 344 179 L 344 168 L 339 168 Z " /><path fill="rgb(32,53,98)" stroke="rgb(32,53,98)" stroke-width="1" opacity="1" d="M 123 128 Q 130.5 125.5 128 133 Q 120.5 135.5 123 128 Z " /><path fill="rgb(32,53,98)" stroke="rgb(32,53,98)" stroke-width="1" opacity="1" d="M 117 139 L 128 139 L 128 144 L 117 144 L 117 139 Z " /><path fill="rgb(32,53,98)" stroke="rgb(32,53,98)" stroke-width="1" opacity="1" d="M 11 149 L 27 149 L 27 155 L 11 155 L 11 149 Z " /><path fill="rgb(32,53,98)" stroke="rgb(32,53,98)" stroke-width="1" opacity="1" d="M 149 155 L 155 155 L 155 163 L 149 163 L 149 155 Z " /><path fill="rgb(32,53,98)" stroke="rgb(32,53,98)" stroke-width="1" opacity="1" d="M 317 200 L 328 200 L 328 205 L 323 205 L 323 216 L 328 216 L 328 229 L 323 229 L 322.5 224 L 307.5 224 L 306.5 221 L 296 221 L 296 224 L 301 224 L 301 229 L 291 229 L 291 235 L 288 235 L 288 221 L 296 221 L 296.5 216 L 312 216 L 312 211 L 317 210.5 L 317 200 Z " /><path fill="rgb(32,53,98)" stroke="rgb(32,53,98)" stroke-width="1" opacity="1" d="M 0 205 L 5 205 L 5 211 L 0 211 L 0 205 Z " /><path fill="rgb(32,53,98)" stroke="rgb(32,53,98)" stroke-width="1" opacity="1" d="M 251 216 L 261 216 L 261 221 L 271.5 221 L 272 224 Q 264.5 221.5 267 229 L 276.5 229 L 277 224 L 283 224 L 283 229 L 277 229 L 277 235 L 261 235 L 261 229 L 256 229 L 256 244.5 L 261 245 L 261 240 L 267 240 L 267 251 L 256 251 L 256 272 L 261 272 L 261 261 L 267 261 L 267 282.5 L 272 283 L 272 277.5 L 272.5 277 L 291 277 L 291 282.5 L 291.5 283 L 333 283 L 333 245.5 L 328 245 L 328 240 L 333 239.5 L 333 221 L 339 221 L 339.5 224 L 349 224 L 349 239.5 L 352 240 L 352 245 L 349 245 L 349 251 L 357 251 L 357 256 L 349 256 L 349 272 L 352 272 L 352 277 L 349 277 L 349 272 L 344 272 L 344 277 L 339 277.5 L 339 288 L 328 288 L 328 291 L 323 291 L 323 296 L 328 296 L 328.5 301 L 339 301 L 339 291 L 344 291 L 344 301 L 349 301 L 349 296 L 352 296 L 352 291 L 373 291 L 373 332.5 L 368 333 L 368 348.5 L 363 349 L 363 357 L 357 357 Q 359.5 349.5 352 352 L 352 344.5 L 349 344 L 349 339 L 344 339 L 344 352 L 349 352 L 349 357 L 352 357 L 352 372.5 L 357 373 L 357 379 Q 349.5 376.5 352 384 L 363 384 L 363 395 L 357 395 L 357 389 L 352 389 L 352 395 L 349 395 L 349 389 L 344 389 L 344 395 L 328 395 L 328 400 Q 320.5 397.5 323 405 L 339 405 L 339 411 L 328 411 L 328 419 L 323 419.5 L 323 429 L 328 429 L 328 455.5 L 333 456 L 333 451 L 344 451 L 344 435 L 339 435 L 339 429 Q 346.5 431.5 344 424 Q 336.5 426.5 339 419 L 344 419 Q 341.5 426.5 349 424 L 349 419 Q 353.5 420.5 352 416 L 344 416 L 344 400 L 349 400 L 349 411 L 357 411 L 357 405 L 363 405 L 363 411 L 357 411 L 357 416 L 367.5 416 L 368 416.5 L 368 456 L 352.5 456 L 352 461 L 344 461 L 344 456 L 333 456 Q 335.5 463.5 328 461 L 328 471.5 L 323 472 L 323 477 L 307 477 L 306.5 472 L 283.5 472 L 283 467 L 272 467 L 272 461 Q 264.5 463.5 267 456 L 261 456 L 261 451 L 251 451 L 251 445 L 260.5 445 L 261 440 L 267 440 L 267.5 445 L 291 445 L 291 461 L 301 461 L 301 456 Q 293.5 458.5 296 451 L 311.5 451 L 312 450.5 L 312 445 L 317 445 L 317 416.5 L 317.5 416 L 323 416 L 323 411 L 317 411 L 317 405.5 L 316.5 405 L 296 405 L 296 400 L 288 400 L 288 395 L 272.5 395 L 272 394.5 L 272 389 L 261.5 389 L 261 384 L 251 384 L 251 333.5 L 250.5 333 L 245 333 L 245 328 L 256 328 L 256 339 L 271.5 339 L 272 344 L 277 344 L 277 339 L 283 339 L 283.5 344 L 317 344 L 317 333 L 323 333 L 323 344 L 332.5 344 L 333 349 L 339 349 L 339 333.5 L 344 333 L 344 323 Q 336.5 320.5 339 328 L 333 328 L 333 317 L 323 317 L 323 328 L 317 328 L 317 312.5 L 317.5 312 L 323 312 L 323 301 L 317 301 L 317 296 Q 309.5 298.5 312 291 L 291.5 291 L 291 288 L 288 288 L 288 283 L 277 283 L 277 288 L 283 288 L 283 291 L 277 291 L 276.5 288 L 261 288 L 260.5 283 L 245 283 L 245 256 L 250.5 256 L 251 255.5 L 251 224.5 L 256 224 L 256 221 Q 248.5 223.5 251 216 Z M 251 272 Q 249 280 256 277 Q 259 270 251 272 Z M 312 288 L 312 291 L 317 291 L 317 288 L 312 288 Z M 333 307 L 333 317 L 344 317 L 344 307 L 333 307 Z M 349 307 L 349 312 L 352 312 L 352 307 L 349 307 Z M 261 349 L 261 352 L 267 352 L 267 353 L 267 379 L 272 379 L 273 384 L 283 384 L 283 389 L 296 389 L 296 395 L 301 395 L 301 389 L 307 389 L 307 395 L 328 395 L 328 389 L 333 389 L 333 373 L 339 373 L 339 357 L 329 357 L 328 352 L 313 352 L 312 349 L 307 349 L 307 352 L 301 352 L 301 349 L 261 349 Z M 256 352 Q 254 360 261 357 Q 264 350 256 352 Z M 344 357 L 344 363 L 349 363 L 349 357 L 344 357 Z M 256 363 L 256 373 L 261 373 L 261 363 L 256 363 Z M 352 435 Q 350 443 357 440 Q 360 433 352 435 Z M 317 445 L 317 451 L 323 451 L 323 445 L 317 445 Z M 272 451 L 272 456 L 283 456 L 283 451 L 272 451 Z M 312 451 Q 315 459 307 456 L 307 461 L 317 461 L 317 451 L 312 451 Z " /><path fill="rgb(32,53,98)" stroke="rgb(32,53,98)" stroke-width="1" opacity="1" d="M 0 221 L 5 221 L 5 224 L 0 224 L 0 221 Z " /><path fill="rgb(32,53,98)" stroke="rgb(32,53,98)" stroke-width="1" opacity="1" d="M 133 221 L 139 221 L 139 229 L 133 229 L 133 235 L 139 235 L 139 240 L 133 240 Q 135.5 232.5 128 235 L 128 229 L 133 229 L 133 221 Z " /><path fill="rgb(32,53,98)" stroke="rgb(32,53,98)" stroke-width="1" opacity="1" d="M 352 229 L 357 229 L 357 235 L 352 235 L 352 229 Z " /><path fill="rgb(32,53,98)" stroke="rgb(32,53,98)" stroke-width="1" opacity="1" d="M 123 240 Q 130.5 237.5 128 245 Q 120.5 247.5 123 240 Z " /><path fill="rgb(32,53,98)" stroke="rgb(32,53,98)" stroke-width="1" opacity="1" d="M 133 245 L 139 245 L 139 251 Q 146.5 248.5 144 256 Q 136.5 258.5 139 251 L 133 251 L 133 245 Z " /><path fill="rgb(32,53,98)" stroke="rgb(32,53,98)" stroke-width="1" opacity="1" d="M 45 251 L 51 251 L 51 260.5 L 56 261 L 56 267 L 51 267 L 51 261 L 45 261 L 45 251 Z " /><path fill="rgb(32,53,98)" stroke="rgb(32,53,98)" stroke-width="1" opacity="1" d="M 128 261 L 144 261 L 144 267 L 155 267 L 155 272 Q 162.5 269.5 160 277 Q 152.5 279.5 155 272 L 149 272 L 149 301 L 144 301 L 144 307 L 139 307 L 139 312 L 133 312 Q 135.5 319.5 128 317 L 128 312 L 123 311.5 L 123 301 Q 130.5 303.5 128 296 Q 120.5 298.5 123 291 L 128 291 L 128 288 Q 120.5 290.5 123 283 L 133 283 L 133 277 L 123 277 L 123 272 L 133 272 L 133 267 L 128 267 L 128 261 Z M 139 267 Q 137 275 144 272 Q 147 265 139 267 Z M 133 283 L 133 288 L 139 288 L 139 283 L 133 283 Z " /><path fill="rgb(32,53,98)" stroke="rgb(32,53,98)" stroke-width="1" opacity="1" d="M 173 261 L 179 261 L 179 272 L 195 272 Q 192.5 264.5 200 267 L 200 276.5 L 195 277 L 195 283 L 200 283 L 200 296 Q 192.5 298.5 195 291 L 189 291 L 189 312 L 179 312 L 179 317 L 184 317 L 184 323 L 173 323 L 173 317 L 163 317 L 163 312 Q 170.5 314.5 168 307 L 163 306.5 L 163 288 L 168 288 Q 165.5 280.5 173 283 L 173 261 Z M 173 296 L 173 301 L 179 301 L 179 296 L 173 296 Z " /><path fill="rgb(32,53,98)" stroke="rgb(32,53,98)" stroke-width="1" opacity="1" d="M 5 267 L 11 267 L 11 277 L 5 277 L 5 267 Z " /><path fill="rgb(32,53,98)" stroke="rgb(32,53,98)" stroke-width="1" opacity="1" d="M 163 267 Q 170.5 264.5 168 272 Q 160.5 274.5 163 267 Z " /><path fill="rgb(32,53,98)" stroke="rgb(32,53,98)" stroke-width="1" opacity="1" d="M 357 277 L 363 277 L 363 283 Q 370.5 280.5 368 288 L 357 288 L 357 277 Z " /><path fill="rgb(32,53,98)" stroke="rgb(32,53,98)" stroke-width="1" opacity="1" d="M 16 283 Q 23.5 280.5 21 288 Q 13.5 290.5 16 283 Z " /><path fill="rgb(32,53,98)" stroke="rgb(32,53,98)" stroke-width="1" opacity="1" d="M 245 288 L 251 288 L 251 291 L 245 291 L 245 288 Z " /><path fill="rgb(32,53,98)" stroke="rgb(32,53,98)" stroke-width="1" opacity="1" d="M 155 291 Q 162.5 288.5 160 296 Q 152.5 298.5 155 291 Z " /><path fill="rgb(32,53,98)" stroke="rgb(32,53,98)" stroke-width="1" opacity="1" d="M 149 307 L 155 307 L 155 317 L 149 317 L 149 307 Z " /><path fill="rgb(32,53,98)" stroke="rgb(32,53,98)" stroke-width="1" opacity="1" d="M 27 328 L 35 328 Q 32.5 335.5 40 333 L 40 339 L 45 339 L 45 333 L 51 333 L 51 339 L 56 339 L 56 333 L 61 333 L 61 339 Q 53.5 336.5 56 344 L 61 344 L 61 352 L 45 352 L 45 344 L 35 344 L 35 333 L 27 333 L 27 328 Z " /><path fill="rgb(32,53,98)" stroke="rgb(32,53,98)" stroke-width="1" opacity="1" d="M 168 344 L 173 344 L 173 352 L 168 352 L 168 344 Z " /><path fill="rgb(32,53,98)" stroke="rgb(32,53,98)" stroke-width="1" opacity="1" d="M 133 379 L 139 379 L 139 384 L 133 384 L 133 379 Z " /><path fill="rgb(32,53,98)" stroke="rgb(32,53,98)" stroke-width="1" opacity="1" d="M 211 395 L 216 395 L 216.5 400 L 235 400 L 235 405 L 245 405 L 245 411 L 229 411 L 229 405.5 L 228.5 405 L 211 405 L 211 395 Z " /><path fill="rgb(32,53,98)" stroke="rgb(32,53,98)" stroke-width="1" opacity="1" d="M 200 400 Q 207.5 397.5 205 405 L 200 405 L 200 411 L 195 411 L 195 405 Q 202.5 407.5 200 400 Z " /><path fill="rgb(32,53,98)" stroke="rgb(32,53,98)" stroke-width="1" opacity="1" d="M 117 405 L 123 405 L 123 411 L 117 411 L 117 405 Z " /><path fill="rgb(32,53,98)" stroke="rgb(32,53,98)" stroke-width="1" opacity="1" d="M 168 411 Q 175.5 408.5 173 416 Q 165.5 418.5 168 411 Z " /><path fill="rgb(32,21,51)" stroke="rgb(32,21,51)" stroke-width="1" opacity="1" d="M 296 0 L 511.5 0 L 512 0.5 L 512 67 Q 504.5 64.5 507 72 L 501 72 L 501 77 L 491 77 L 491 83 L 485 83 L 485 88 L 480 88 L 480 93 Q 475.5 91.5 477 96 L 467 96 L 466.5 93 L 451 93 L 450.5 88 L 435 88 L 434.5 83 L 416 83 L 416 77.5 L 415.5 77 L 389 77 L 389 83 L 379 83 L 379 88 L 363.5 88 L 363 93 L 352 93 Q 353.5 97.5 349 96 L 349 101 L 339 101 L 339 107 L 307.5 107 L 307 112 L 296 112 Q 298.5 119.5 291 117 L 291 123 L 283 123 L 283 128 L 267.5 128 L 267 133 L 256 133 L 256 139 L 251 139.5 L 251 160 L 245.5 160 L 245 160.5 L 245 211 L 250.5 211 L 251 211.5 L 251 256 L 245 256 L 245 282.5 L 240 283 L 240 288 L 245 288 L 245 291 L 240 291.5 L 240 323 L 245 323.5 L 245 339 L 250.5 339 L 251 339.5 L 251 395 L 245 395 L 245 405 L 235 405 L 235 400 L 216.5 400 L 216 395 L 211 395 L 211 400 L 200 400 L 200 389 L 195 389 L 195 395 L 184 395 L 184 389 L 189 389 L 189 384 L 195 384 Q 192.5 376.5 200 379 L 200 373 L 189 373 L 189 379 L 184 379 L 184 357 Q 191.5 359.5 189 352 L 195 352 L 195 363 L 200 363 L 200 349 Q 192.5 351.5 195 344 L 189 344 L 189 333 L 179 333 L 179 328 L 184 328 L 184 317 L 189 316.5 L 189 301 L 195 301 L 195 296 L 189 296 L 189 291 L 195 291 Q 192.5 298.5 200 296 L 200 283.5 L 195 283 L 195 277 L 200 277 L 200 283 L 205 283 L 205 272.5 L 200 272 L 200 267 L 205 267 L 205 261 L 200 260.5 L 200 245 L 205 244.5 L 205 229 L 200 229 L 200 235 L 189.5 235 L 189 240 L 184 240 L 184 229 L 200 229 L 200 216 Q 192.5 218.5 195 211 L 189 211 L 189 205 L 200 205 L 200 189 L 195 189 L 195 200 L 189 200 L 189 184 L 205 184 L 205 168.5 L 205.5 168 L 211 168 L 211 160 L 216 160 L 216 149 L 205 149 L 205 155 L 200 155 L 200 149 Q 192.5 151.5 195 144 L 205 144 L 205 117 Q 197.5 119.5 200 112 L 205 112 L 205 101 Q 197.5 103.5 200 96 Q 207.5 93.5 205 101 L 211 101 L 211 96 L 224 96 L 224 93 L 229 93 L 229.5 88 L 250.5 88 L 251.5 83 L 267 83 L 267 77 L 282.5 77 L 283 72 L 296 72 L 296.5 67 L 317 67 L 317 61 L 328 61 L 328 56 Q 335.5 58.5 333 51 L 349 51 L 349 45 L 363 45 L 363 40 L 373 40 L 373 35 L 368 35 L 367.5 32 L 349 32 L 348.5 27 L 328 27 L 328 21 L 317 21 L 317 16 L 307.5 16 L 307 11 L 301 11 L 301 5 Q 293.5 7.5 296 0 Z M 205 112 L 205 117 L 211 117 L 211 112 L 205 112 Z M 195 333 L 195 339 L 200 339 L 200 333 L 195 333 Z " /><path fill="rgb(32,21,51)" stroke="rgb(32,21,51)" stroke-width="1" opacity="1" d="M 195 160 L 200 160 L 200 163 L 195 163 L 195 160 Z " /><path fill="rgb(30,87,156)" stroke="rgb(30,87,156)" stroke-width="1" opacity="1" d="M 32 45 L 40 45 L 40 51 Q 47.5 48.5 45 56 L 51 56 L 51 67 L 45 67 L 45 56 L 40 56 L 40 66.5 L 35 67 L 35 72 L 40 72 Q 37.5 79.5 45 77 L 45 72 L 51 72 L 51 77 L 45 77 L 45 88 L 40 88 L 40 83 L 35 82.5 L 35 72.5 L 32 71.5 L 32 61 L 35 60.5 L 35 51 L 32 51 L 32 45 Z " /><path fill="rgb(30,87,156)" stroke="rgb(30,87,156)" stroke-width="1" opacity="1" d="M 61 56 L 67 56 L 67.5 61 L 77 61 L 77 67 L 72 67 L 72 77 L 77 77 L 77.5 72 L 88 72 L 88 88 L 83 88 L 83 96 L 77 96 L 77 101 L 83 101 L 83 117 L 77 117 L 77 112 L 72 112 Q 74.5 104.5 67 107 L 67 101 L 61 101 L 61 96 L 56 96 L 56 93 L 51 93 L 51 88 L 56 87.5 L 56 72 L 67 72 L 67 67 L 56 67 L 56 61 Q 63.5 63.5 61 56 Z M 61 77 L 61 83 L 67 83 L 67 88 L 61 88 L 61 93 L 67 93 L 67 96 L 77 96 L 77 83 L 72 83 L 72 77 L 61 77 Z " /><path fill="rgb(30,87,156)" stroke="rgb(30,87,156)" stroke-width="1" opacity="1" d="M 93 83 L 111.5 83 L 112 88 L 123 88 L 123 93 L 128 93 L 128 96 L 133 96 L 133 101 L 117 101 L 117 93.5 L 116.5 93 L 93 93 L 93 83 Z " /><path fill="rgb(30,87,156)" stroke="rgb(30,87,156)" stroke-width="1" opacity="1" d="M 35 93 L 40 93 L 40.5 96 L 51 96 Q 48.5 103.5 56 101 L 56 123 L 51 123 L 51 128 L 45 128 Q 47.5 135.5 40 133 L 40 128 L 32 128 L 32 117.5 L 27 117 L 27 112 Q 34.5 114.5 32 107 L 27 107 L 27 101 L 32 101 L 32 96 Q 36.5 97.5 35 93 Z M 32 101 L 32 107 L 35 107 L 35 101 L 32 101 Z M 40 101 L 40 107 L 35 107 L 35 112 L 45 112 L 45 117 L 51 117 L 51 107 L 45 107 L 45 101 L 40 101 Z M 35 117 L 35 123 L 40 123 L 40 117 L 35 117 Z " /><path fill="rgb(30,87,156)" stroke="rgb(30,87,156)" stroke-width="1" opacity="1" d="M 88 96 L 96 96 L 96 112 L 93 112 L 93 107 L 88 107 L 88 96 Z " /><path fill="rgb(30,87,156)" stroke="rgb(30,87,156)" stroke-width="1" opacity="1" d="M 107 96 Q 114.5 93.5 112 101 Q 104.5 103.5 107 96 Z " /><path fill="rgb(30,87,156)" stroke="rgb(30,87,156)" stroke-width="1" opacity="1" d="M 123 107 L 133 107 L 133 112 Q 125.5 109.5 128 117 L 123 117 L 123 107 Z " /><path fill="rgb(30,87,156)" stroke="rgb(30,87,156)" stroke-width="1" opacity="1" d="M 88 117 L 96 117 L 96 123 L 107 123 L 107 128 L 117 128 L 117 123 L 128 123 L 128 128 Q 120.5 125.5 123 133 L 117 133 L 117 139 L 112 139 L 112 133 L 101.5 133 L 101 128 L 93 128 Q 95.5 120.5 88 123 L 88 117 Z " /><path fill="rgb(30,87,156)" stroke="rgb(30,87,156)" stroke-width="1" opacity="1" d="M 133 117 L 139 117 L 139 123 L 133 123 L 133 117 Z " /><path fill="rgb(30,87,156)" stroke="rgb(30,87,156)" stroke-width="1" opacity="1" d="M 67 123 L 77 123 L 77 128 L 87.5 128 L 88 133 L 93 133 L 93 149 L 88 149 Q 90.5 141.5 83 144 L 83 133 L 77 133 Q 79.5 125.5 72 128 Q 74.5 135.5 67 133 L 67 139 L 56 139 L 56 133 Q 63.5 135.5 61 128 L 67 128 L 67 123 Z " /><path fill="rgb(30,87,156)" stroke="rgb(30,87,156)" stroke-width="1" opacity="1" d="M 101 139 L 107 139 L 107.5 144 L 117 144 L 117 149 L 107 149 L 107 155 L 101 155 L 101 160 L 112 160 L 112 168 L 117 168 L 117 163 L 122.5 163 L 123 160 L 128 160 L 128 163 L 123 163 L 123 168 Q 130.5 165.5 128 173 L 117 173 L 117 179 L 107 179 L 107 184 L 117 184 L 117 189 L 123 189 L 123 195 L 117 195 Q 119.5 202.5 112 200 L 112 189 L 107 189 L 107 200 L 101 200 L 101 205 L 83 205 L 83 200 L 72 200 L 72 195 L 77 195 L 77 189 L 83 189 L 83 195 L 93 195 L 93 200 L 96 200 L 96 189.5 L 101 189 L 101 179 L 96 179 L 96 184 L 93 184 L 93 179 L 96 178.5 L 96 173 L 101 173 L 101 179 L 107 179 L 107 173 Q 114.5 175.5 112 168 L 101 168 Q 103.5 160.5 96 163 L 96 155 L 101 154.5 L 101 139 Z " /><path fill="rgb(30,87,156)" stroke="rgb(30,87,156)" stroke-width="1" opacity="1" d="M 251 139 Q 258.5 136.5 256 144 Q 248.5 146.5 251 139 Z " /><path fill="rgb(30,87,156)" stroke="rgb(30,87,156)" stroke-width="1" opacity="1" d="M 32 144 L 45 144 L 45 149 L 51 149 L 51 155 L 61 155 L 61 160 L 71.5 160 L 72 163 L 51.5 163 L 51 162.5 L 51 155 L 35 155 L 35 160 L 40 160 L 40 163 L 45 163 L 45 168 L 60.5 168 L 61 173 L 56 173 L 56 179 Q 63.5 176.5 61 184 L 56 184 L 55.5 179 L 45 179 L 45 173 L 35 173 L 35 168 L 32 168 L 32 163 Q 36.5 164.5 35 160 L 32 160 L 32 155 L 27 155 L 27 149 Q 34.5 151.5 32 144 Z " /><path fill="rgb(30,87,156)" stroke="rgb(30,87,156)" stroke-width="1" opacity="1" d="M 61 144 L 72 144 Q 69.5 151.5 77 149 L 77 155 L 92.5 155 L 93 160 L 77 160 L 77 155 L 67 155 L 67 149 L 61 149 L 61 144 Z " /><path fill="rgb(30,87,156)" stroke="rgb(30,87,156)" stroke-width="1" opacity="1" d="M 251 149 L 256 149 L 256 155 L 251 155 L 251 149 Z " /><path fill="rgb(30,87,156)" stroke="rgb(30,87,156)" stroke-width="1" opacity="1" d="M 133 155 L 139 155 L 139 160 L 133 160 L 133 155 Z " /><path fill="rgb(30,87,156)" stroke="rgb(30,87,156)" stroke-width="1" opacity="1" d="M 21 160 L 27 160 L 27 163 L 21 163 L 21 160 Z " /><path fill="rgb(30,87,156)" stroke="rgb(30,87,156)" stroke-width="1" opacity="1" d="M 256 160 L 266.5 160 L 267 163 L 272 163 L 272.5 160 L 283 160 L 282.5 163 L 272 163 L 272 173 L 300.5 173 L 301 168 L 312 168 L 312 173 L 301 173 L 301 179 L 307 179 L 307 184 L 296.5 184 L 296 179 L 291 179 L 291 184 L 283 184 L 282.5 179 L 267 179 L 267 173 L 261 173 L 260.5 168 L 251 168 L 251 163 L 256 163 L 256 160 Z " /><path fill="rgb(30,87,156)" stroke="rgb(30,87,156)" stroke-width="1" opacity="1" d="M 301 160 L 322.5 160 L 323 163 L 328 163 L 328 168 L 317.5 168 L 317 163 L 301.5 163 L 301 160 Z " /><path fill="rgb(30,87,156)" stroke="rgb(30,87,156)" stroke-width="1" opacity="1" d="M 288 163 L 291 163 L 291 168 L 288 168 L 288 163 Z " /><path fill="rgb(30,87,156)" stroke="rgb(30,87,156)" stroke-width="1" opacity="1" d="M 72 168 L 77 168.5 L 77 184 L 72 184 Q 74.5 191.5 67 189 L 67 179 L 72 178.5 L 72 168 Z " /><path fill="rgb(30,87,156)" stroke="rgb(30,87,156)" stroke-width="1" opacity="1" d="M 83 173 L 88 173 L 88 179 L 83 179 L 83 173 Z " /><path fill="rgb(30,87,156)" stroke="rgb(30,87,156)" stroke-width="1" opacity="1" d="M 317 173 L 328 173 L 328 184 Q 320.5 186.5 323 179 L 317 179 L 317 173 Z " /><path fill="rgb(30,87,156)" stroke="rgb(30,87,156)" stroke-width="1" opacity="1" d="M 35 184 L 45 184 L 45 195 L 40 195 L 40 189 Q 32.5 191.5 35 184 Z " /><path fill="rgb(30,87,156)" stroke="rgb(30,87,156)" stroke-width="1" opacity="1" d="M 245 184 L 251 184 L 251 189 L 245 189 L 245 184 Z " /><path fill="rgb(30,87,156)" stroke="rgb(30,87,156)" stroke-width="1" opacity="1" d="M 272 184 Q 279.5 181.5 277 189 Q 269.5 191.5 272 184 Z " /><path fill="rgb(30,87,156)" stroke="rgb(30,87,156)" stroke-width="1" opacity="1" d="M 312 184 L 317 184 L 317 195 L 323 195 L 323 189 L 328 189 L 328 200 L 317 200 L 317 211 L 312 211 L 311.5 216 L 296 216 L 296 221 L 306.5 221 L 307.5 224 L 323 224 L 323 229 L 333 229 L 333 235 L 323 235 L 322.5 240 L 312 240 Q 309.5 232.5 317 235 L 317 229 L 307 229 L 307 235 L 301 235 Q 303.5 242.5 296 240 Q 298.5 232.5 291 235 L 291 229 L 301 229 L 301 224 L 296 224 L 295.5 221 L 288 221 L 288 244.5 L 283 245 L 283 240 L 277 240 L 277 251 L 288 251 L 288 256 Q 280.5 253.5 283 261 L 277 261 L 277 251 L 272 251 L 272 261 L 261 261 L 261 272 L 256 272 Q 258.5 279.5 251 277 L 251 272 L 256 271.5 L 256 251 L 267 251 L 267 245 Q 274.5 247.5 272 240 L 261.5 240 L 261 245 L 256 245 L 256 229.5 L 261 229 L 261 235 L 277 235 L 277 229 L 267 229 L 267 224 L 272 224 L 272 221 L 277 221 L 277 216 L 267.5 216 L 267 221 L 261 221 L 261 205 L 267 205 L 267 211 L 277 211 L 277 205 L 283 205 L 283 216 L 291 216 L 291 211 L 288 210.5 L 288 200 L 296 200 L 296.5 205 L 307 205 L 307 195 L 301 195 L 301 189 L 307 189 L 307 195 L 312 195 L 312 184 Z M 277 224 L 277 229 L 283 229 L 283 224 L 277 224 Z " /><path fill="rgb(30,87,156)" stroke="rgb(30,87,156)" stroke-width="1" opacity="1" d="M 51 189 L 61 189 L 61 195 L 67 195 L 67 210.5 L 72 211 L 72 216 L 67 216 L 66.5 221 L 56 221 L 56 229 L 51 229 L 51 216 L 45 216 Q 47.5 223.5 40 221 L 40 211.5 L 35 211 L 35 205 L 32 205 L 32 195 L 35 195 L 35 200 L 40 200 L 40 211 L 45 211 L 45 205 L 51 205 L 51 216 L 61 216 Q 63.5 208.5 56 211 L 56 205 Q 63.5 207.5 61 200 L 56 200 Q 58.5 192.5 51 195 L 51 189 Z " /><path fill="rgb(30,87,156)" stroke="rgb(30,87,156)" stroke-width="1" opacity="1" d="M 245 195 L 251 195 Q 248.5 202.5 256 200 L 256 216 Q 248.5 218.5 251 211 L 245 211 L 245 195 Z " /><path fill="rgb(30,87,156)" stroke="rgb(30,87,156)" stroke-width="1" opacity="1" d="M 272 195 Q 279.5 192.5 277 200 Q 269.5 202.5 272 195 Z " /><path fill="rgb(30,87,156)" stroke="rgb(30,87,156)" stroke-width="1" opacity="1" d="M 117 205 L 123 205 L 123 211 L 117 211 L 117 205 Z " /><path fill="rgb(30,87,156)" stroke="rgb(30,87,156)" stroke-width="1" opacity="1" d="M 323 205 L 333 205 L 333 211 L 328 211 Q 330.5 218.5 323 216 L 323 205 Z " /><path fill="rgb(30,87,156)" stroke="rgb(30,87,156)" stroke-width="1" opacity="1" d="M 88 211 Q 95.5 208.5 93 216 L 101 216 L 101 211 L 107 211 L 107 224 L 101 224 Q 103.5 231.5 96 229 L 96 240 L 106.5 240 L 107 235 L 112 235 L 112 240 Q 104.5 237.5 107 245 L 116.5 245 L 117 240 L 123 240 Q 120.5 247.5 128 245 Q 125.5 237.5 133 240 Q 135.5 247.5 128 245 L 128 251 L 107.5 251 L 107 256 L 101 256 L 101 251 L 93 251 L 93 235.5 L 88 235 L 88 221 L 77 221 L 77 216 L 88 216 L 88 211 Z M 96 221 L 96 224 L 101 224 L 101 221 L 96 221 Z " /><path fill="rgb(30,87,156)" stroke="rgb(30,87,156)" stroke-width="1" opacity="1" d="M 32 216 L 35 216 L 35 221 L 32 221 L 32 216 Z " /><path fill="rgb(30,87,156)" stroke="rgb(30,87,156)" stroke-width="1" opacity="1" d="M 112 216 L 123 216 L 123 221 L 112 221 L 112 216 Z " /><path fill="rgb(30,87,156)" stroke="rgb(30,87,156)" stroke-width="1" opacity="1" d="M 251 221 L 256 221 L 256 224 L 251 224 L 251 221 Z " /><path fill="rgb(30,87,156)" stroke="rgb(30,87,156)" stroke-width="1" opacity="1" d="M 40 224 Q 47.5 221.5 45 229 Q 37.5 231.5 40 224 Z " /><path fill="rgb(30,87,156)" stroke="rgb(30,87,156)" stroke-width="1" opacity="1" d="M 77 224 L 83 224 L 83 229 L 77 229 L 77 224 Z " /><path fill="rgb(30,87,156)" stroke="rgb(30,87,156)" stroke-width="1" opacity="1" d="M 123 224 L 133 224 L 133 229 L 123 229 L 123 224 Z " /><path fill="rgb(30,87,156)" stroke="rgb(30,87,156)" stroke-width="1" opacity="1" d="M 51 235 L 56 235 Q 53.5 242.5 61 240 L 61 235 L 67 235 L 67 240 L 72 240 L 72 245 L 77 245.5 L 77 267 L 83 267 L 83 251.5 L 88 251 L 88 272 L 77 272 L 77 277 L 83 277 L 83 291 L 77 291 L 76.5 296 L 67 296 L 66.5 291 L 51 291 L 51 283 L 40 283 L 40 261.5 L 35 261 L 35 245.5 L 32 245 L 32 240 L 35 240 L 35.5 245 L 56 245 L 56 240 Q 48.5 242.5 51 235 Z M 45 251 L 45 261 L 51 261 L 51 251 L 45 251 Z M 56 251 L 56 261 L 51 261 L 51 272 L 67 272 L 67 277 L 72 277 L 72 267 L 67 267 L 67 261 L 72 261 L 72 256 Q 65 259 67 251 L 56 251 Z M 51 277 L 51 283 L 56 283 L 56 277 L 51 277 Z M 67 283 Q 65 291 72 288 Q 75 281 67 283 Z " /><path fill="rgb(30,87,156)" stroke="rgb(30,87,156)" stroke-width="1" opacity="1" d="M 83 240 Q 90.5 237.5 88 245 Q 80.5 247.5 83 240 Z " /><path fill="rgb(30,87,156)" stroke="rgb(30,87,156)" stroke-width="1" opacity="1" d="M 328 245 L 333 245 L 333 251 L 328 251 L 328 245 Z " /><path fill="rgb(30,87,156)" stroke="rgb(30,87,156)" stroke-width="1" opacity="1" d="M 317 251 L 323 251 L 323 256 L 317 256 L 317 251 Z " /><path fill="rgb(30,87,156)" stroke="rgb(30,87,156)" stroke-width="1" opacity="1" d="M 93 256 L 96 256 L 96 261 L 93 261 L 93 256 Z " /><path fill="rgb(30,87,156)" stroke="rgb(30,87,156)" stroke-width="1" opacity="1" d="M 107 261 L 117 261 L 117 267 L 107 267 L 107 277 L 101 277 L 101 283 L 93 283 L 93 277 L 96 276.5 L 96 267 L 107 267 L 107 261 Z " /><path fill="rgb(30,87,156)" stroke="rgb(30,87,156)" stroke-width="1" opacity="1" d="M 307 261 L 312 261 L 312 267 L 322.5 267 L 323 272 L 328 272 Q 325.5 264.5 333 267 L 333 283 L 317 283 L 317 272 L 307 272 L 307 261 Z " /><path fill="rgb(30,87,156)" stroke="rgb(30,87,156)" stroke-width="1" opacity="1" d="M 128 267 Q 135.5 264.5 133 272 Q 125.5 274.5 128 267 Z " /><path fill="rgb(30,87,156)" stroke="rgb(30,87,156)" stroke-width="1" opacity="1" d="M 272 267 L 287.5 267 L 288 272 L 301 272 L 301 277 L 312 277 L 312 283 L 291.5 283 L 290.5 277 L 272 277 L 272 283 L 267 283 L 267 272.5 L 272 272 L 272 267 Z " /><path fill="rgb(30,87,156)" stroke="rgb(30,87,156)" stroke-width="1" opacity="1" d="M 117 272 L 123 272 L 123.5 277 L 133 277 L 133 283 L 139 283 L 139 288 L 133 288 L 132.5 283 L 123 283 L 123 288 L 128 288 L 128 291 Q 120.5 288.5 123 296 Q 130.5 293.5 128 301 L 123 301 L 123 312 L 117 312 Q 119.5 304.5 112 307 Q 114.5 314.5 107 312 L 107 307 L 101 307 L 101 296 L 96 296 L 96 306.5 L 93 307 L 93 296.5 L 88 296 L 88 288 L 93 288 Q 91.5 292.5 96 291 L 96 288 L 101 288 L 101 291 L 107 291 L 107 296 L 112 296 L 112 301 L 123 301 L 123 296 L 117 296 L 117 291 L 123 291 L 123 288 L 117 288 L 117 283 L 123 283 L 123 277 L 117 277 L 117 272 Z " /><path fill="rgb(30,87,156)" stroke="rgb(30,87,156)" stroke-width="1" opacity="1" d="M 27 277 L 32 277 L 32 283 L 27 283 L 27 277 Z " /><path fill="rgb(30,87,156)" stroke="rgb(30,87,156)" stroke-width="1" opacity="1" d="M 240 283 L 261 283 L 261 291 L 256 291 Q 258.5 298.5 251 296 L 251 288 L 240 288 L 240 283 Z " /><path fill="rgb(30,87,156)" stroke="rgb(30,87,156)" stroke-width="1" opacity="1" d="M 277 283 L 288 283 L 288 288 L 291 288.5 L 291 296 L 296 296 L 296 291 L 311.5 291 L 312 288 L 317 288 L 317 291 L 312 291 L 312 296 Q 319.5 293.5 317 301 L 323 301 L 323 312 L 307 312 L 307 296 L 296 296 L 296 301 L 283 301 L 283 296 Q 290.5 298.5 288 291 L 283 291 L 282.5 288 L 277 288 L 277 291 L 272 291 L 272 288 L 277 288 L 277 283 Z " /><path fill="rgb(30,87,156)" stroke="rgb(30,87,156)" stroke-width="1" opacity="1" d="M 323 291 Q 330.5 288.5 328 296 Q 320.5 298.5 323 291 Z " /><path fill="rgb(30,87,156)" stroke="rgb(30,87,156)" stroke-width="1" opacity="1" d="M 67 301 L 77 301 L 77 317 L 88 317 Q 85.5 309.5 93 312 Q 95.5 319.5 88 317 L 88 323 L 93 323 L 93 328 L 96 328 L 96 333 L 101 333 L 101 339 L 107 339 L 107 344 L 96 344 L 96 357 L 101 357 L 101 363 L 83.5 363 L 83 362.5 L 83 357 L 72.5 357 L 72 352 L 67 352 L 67 357 L 61 357 L 61 344 L 56 344 Q 58.5 336.5 51 339 L 51 333 L 45 333 L 45 328 L 55.5 328 L 56 323 L 67 323 L 67 301 Z M 67 323 L 67 349 L 77 349 L 78 352 L 88 352 L 88 357 L 93 357 L 93 340 L 96 339 L 96 333 L 88 333 L 88 328 Q 81 326 83 333 L 77 333 L 77 339 L 72 339 L 72 333 L 77 333 Q 80 326 72 328 L 72 323 L 67 323 Z M 77 323 L 77 328 L 83 328 L 83 323 L 77 323 Z M 56 333 L 56 339 L 61 339 L 61 333 L 56 333 Z " /><path fill="rgb(30,87,156)" stroke="rgb(30,87,156)" stroke-width="1" opacity="1" d="M 56 307 L 61 307 L 61 317 L 56 317 L 56 307 Z " /><path fill="rgb(30,87,156)" stroke="rgb(30,87,156)" stroke-width="1" opacity="1" d="M 267 307 Q 274.5 304.5 272 312 Q 264.5 314.5 267 307 Z " /><path fill="rgb(30,87,156)" stroke="rgb(30,87,156)" stroke-width="1" opacity="1" d="M 291 307 Q 298.5 304.5 296 312 Q 288.5 314.5 291 307 Z " /><path fill="rgb(30,87,156)" stroke="rgb(30,87,156)" stroke-width="1" opacity="1" d="M 96 312 Q 103.5 309.5 101 317 Q 93.5 319.5 96 312 Z " /><path fill="rgb(30,87,156)" stroke="rgb(30,87,156)" stroke-width="1" opacity="1" d="M 240 317 L 245 317 L 245 323 L 255.5 323 L 256 328 L 261 328 L 261 323 L 267 323 L 267 328 L 276.5 328 L 277 333 L 283 333 L 283 339 L 307 339 L 307 333 L 301 333 L 301 328 L 307 328 L 307 317 L 317 317 L 317 328 L 323 328 L 323 333 L 317 333 L 317 343.5 L 316.5 344 L 283 344 L 283 339 L 277 339 Q 279.5 346.5 272 344 Q 274.5 336.5 267 339 L 267 333 L 261 333 L 261 339 L 256 339 L 256 328 L 245 328 Q 247.5 320.5 240 323 L 240 317 Z M 307 328 Q 305 336 312 333 Q 315 326 307 328 Z " /><path fill="rgb(30,87,156)" stroke="rgb(30,87,156)" stroke-width="1" opacity="1" d="M 101 323 L 107 323 L 107 328 L 101 328 L 101 323 Z " /><path fill="rgb(30,87,156)" stroke="rgb(30,87,156)" stroke-width="1" opacity="1" d="M 288 328 L 291 328 L 291 333 L 288 333 L 288 328 Z " /><path fill="rgb(30,87,156)" stroke="rgb(30,87,156)" stroke-width="1" opacity="1" d="M 245 333 L 251 333 L 251 339 L 245 339 L 245 333 Z " /><path fill="rgb(30,87,156)" stroke="rgb(30,87,156)" stroke-width="1" opacity="1" d="M 112 344 L 117 344 L 117 352 L 112 352 Q 114.5 359.5 107 357 L 107 349 Q 114.5 351.5 112 344 Z " /><path fill="rgb(30,87,156)" stroke="rgb(30,87,156)" stroke-width="1" opacity="1" d="M 261 349 L 276.5 349 L 277 352 Q 269.5 349.5 272 357 L 283 357 L 283 363 L 277 363 L 277 368 Q 269.5 365.5 272 373 L 277 373 L 277 379 L 283 379 L 283 373 L 288 373 L 288 384 L 311.5 384 L 312 389 L 317 389 L 317.5 384 L 333 384 Q 335.5 391.5 328 389 L 328 395 L 323 395 L 323 389 L 317 389 L 317 395 L 307 395 L 307 389 L 301 389 L 301 395 L 296 395 L 296 389 L 283.5 389 L 283 384 L 272 384 L 272 379 L 267 378.5 L 267 368 Q 274.5 370.5 272 363 L 267 363 L 267 352 L 261 352 Q 263.5 359.5 256 357 L 256 352 L 261 352 L 261 349 Z " /><path fill="rgb(30,87,156)" stroke="rgb(30,87,156)" stroke-width="1" opacity="1" d="M 283 349 L 288 349 L 288.5 352 L 296 352 L 296 349 L 301 349 L 301.5 352 L 327.5 352 L 328 357 L 301.5 357 L 301 357.5 L 301 363 L 296 363 L 296 357 L 288 357 L 288 352 L 283 352 L 283 349 Z " /><path fill="rgb(30,87,156)" stroke="rgb(30,87,156)" stroke-width="1" opacity="1" d="M 256 363 L 261 363 L 261 373 L 256 373 L 256 363 Z " /><path fill="rgb(30,87,156)" stroke="rgb(30,87,156)" stroke-width="1" opacity="1" d="M 93 368 L 107 368 L 107 373 L 112 373.5 L 112 384 L 107 384 L 107 373 L 93 373 L 93 368 Z " /><path fill="rgb(30,87,156)" stroke="rgb(30,87,156)" stroke-width="1" opacity="1" d="M 267 389 L 272 389 L 272 394.5 L 272.5 395 L 288 395 L 288 400 L 261.5 400 L 261 395 L 267 395 L 267 389 Z " /><path fill="rgb(30,87,156)" stroke="rgb(30,87,156)" stroke-width="1" opacity="1" d="M 291 400 L 296 400 Q 293.5 407.5 301 405 L 301 416 Q 293.5 418.5 296 411 L 288 411 L 288 405 L 291 405 L 291 400 Z " /><path fill="rgb(30,87,156)" stroke="rgb(30,87,156)" stroke-width="1" opacity="1" d="M 323 400 Q 330.5 397.5 328 405 Q 320.5 407.5 323 400 Z " /><path fill="rgb(30,87,156)" stroke="rgb(30,87,156)" stroke-width="1" opacity="1" d="M 251 405 L 256 405 L 256 416 L 251 416 L 251 405 Z " /><path fill="rgb(30,87,156)" stroke="rgb(30,87,156)" stroke-width="1" opacity="1" d="M 307 405 L 317 405 L 317 411 L 323 411 L 323 416 L 317.5 416 L 317 416.5 L 317 445 L 323 445 L 323 451 L 317 451 L 317 461 L 307 461 L 307 456 Q 314.5 458.5 312 451 L 296.5 451 L 296 456 Q 303.5 453.5 301 461 L 291 461 L 291 440 L 300.5 440 L 301 445 L 307 445 L 307 440 Q 314.5 442.5 312 435 L 301 435 L 301 429 L 312 429 L 312 411 L 307 411 L 307 405 Z M 312 445 L 312 451 L 317 451 L 317 445 L 312 445 Z " /><path fill="rgb(30,87,156)" stroke="rgb(30,87,156)" stroke-width="1" opacity="1" d="M 267 411 Q 274.5 408.5 272 416 Q 264.5 418.5 267 411 Z " /><path fill="rgb(30,87,156)" stroke="rgb(30,87,156)" stroke-width="1" opacity="1" d="M 261 419 L 267 419 L 267 424 L 261 424 L 261 419 Z " /><path fill="rgb(30,87,156)" stroke="rgb(30,87,156)" stroke-width="1" opacity="1" d="M 301 419 L 307 419 L 307 424 L 301 424 L 301 419 Z " /><path fill="rgb(30,87,156)" stroke="rgb(30,87,156)" stroke-width="1" opacity="1" d="M 323 419 L 328 419 L 328 429 L 323 429 L 323 419 Z " /><path fill="rgb(30,87,156)" stroke="rgb(30,87,156)" stroke-width="1" opacity="1" d="M 251 424 Q 258.5 421.5 256 429 L 261 429 L 261 445 L 251 445 L 251 435 L 245 435 L 245 429 L 251 429 L 251 424 Z " /><path fill="rgb(30,87,156)" stroke="rgb(30,87,156)" stroke-width="1" opacity="1" d="M 267 440 Q 274.5 437.5 272 445 Q 264.5 447.5 267 440 Z " /><path fill="rgb(30,87,156)" stroke="rgb(30,87,156)" stroke-width="1" opacity="1" d="M 272 451 L 283 451 L 283 456 L 272 456 L 272 451 Z " /></svg>